<svg width="31" height="31" viewBox="0 0 31 31" fill="none" xmlns="http://www.w3.org/2000/svg">
<rect width="31" height="31" fill="white"/>
<path d="M11.625 21.9583V23.25C11.625 23.7589 11.7252 24.2628 11.92 24.733C12.1147 25.203 12.4001 25.6302 12.76 25.99C13.1198 26.3499 13.547 26.6353 14.017 26.83C14.4872 27.0248 14.9911 27.125 15.5 27.125C16.0089 27.125 16.5128 27.0248 16.983 26.83C17.453 26.6353 17.8802 26.3499 18.24 25.99C18.5999 25.6302 18.8853 25.203 19.08 24.733C19.2748 24.2628 19.375 23.7589 19.375 23.25V21.9583" stroke="#19355C" stroke-width="1.5" stroke-linecap="round" stroke-linejoin="round"/>
<path d="M25.8333 21.9583C25.8333 21.9583 23.25 15.5 23.25 11.625C23.25 7.40383 19.7211 3.875 15.5 3.875C11.2788 3.875 7.74996 7.40383 7.74996 11.625C7.74996 16.7917 5.16663 21.9583 5.16663 21.9583H25.8333Z" stroke="#19355C" stroke-width="1.5" stroke-linecap="round" stroke-linejoin="round"/>
</svg>
