<svg width="35" height="35" viewBox="0 0 35 35" fill="none" xmlns="http://www.w3.org/2000/svg">
<path d="M20.1541 32.0833H14.8458C14.5132 32.0834 14.1906 31.9697 13.9314 31.7613C13.6723 31.5528 13.4922 31.262 13.421 30.9371L12.8275 28.1896C12.0357 27.8426 11.2849 27.4088 10.5889 26.896L7.90997 27.7492C7.59288 27.8503 7.25073 27.8399 6.94036 27.7197C6.62998 27.5996 6.37005 27.3768 6.20372 27.0885L3.54372 22.4933C3.37914 22.2048 3.31736 21.8689 3.36849 21.5407C3.41962 21.2124 3.58063 20.9113 3.82518 20.6865L5.90331 18.7906C5.8088 17.9318 5.8088 17.0653 5.90331 16.2065L3.82518 14.315C3.58029 14.0901 3.41906 13.7887 3.36792 13.4601C3.31678 13.1316 3.37877 12.7954 3.54372 12.5067L6.19789 7.90854C6.36421 7.62025 6.62415 7.39753 6.93452 7.27736C7.2449 7.15719 7.58704 7.1468 7.90414 7.24792L10.5831 8.10104C10.9389 7.83854 11.3093 7.59354 11.6914 7.37188C12.0604 7.16479 12.4396 6.97667 12.8275 6.80896L13.4225 4.06438C13.4933 3.73946 13.6731 3.4485 13.9319 3.23976C14.1908 3.03102 14.5133 2.91702 14.8458 2.91667H20.1541C20.4867 2.91702 20.8091 3.03102 21.068 3.23976C21.3269 3.4485 21.5066 3.73946 21.5775 4.06438L22.1783 6.81042C22.9691 7.15935 23.7197 7.59307 24.4168 8.10396L27.0973 7.25083C27.4142 7.15009 27.756 7.16067 28.066 7.28082C28.3761 7.40097 28.6358 7.62348 28.8021 7.91146L31.4562 12.5096C31.7946 13.1031 31.6779 13.8542 31.1748 14.3165L29.0966 16.2123C29.1911 17.0711 29.1911 17.9377 29.0966 18.7965L31.1748 20.6923C31.6779 21.156 31.7946 21.9056 31.4562 22.4992L28.8021 27.0973C28.6357 27.3856 28.3758 27.6083 28.0654 27.7285C27.755 27.8486 27.4129 27.859 27.0958 27.7579L24.4168 26.9048C23.7214 27.4172 22.9711 27.8505 22.1798 28.1969L21.5775 30.9371C21.5063 31.2617 21.3265 31.5524 21.0676 31.7608C20.8088 31.9693 20.4865 32.0831 20.1541 32.0833ZM17.4941 11.6667C15.947 11.6667 14.4633 12.2812 13.3694 13.3752C12.2754 14.4692 11.6608 15.9529 11.6608 17.5C11.6608 19.0471 12.2754 20.5308 13.3694 21.6248C14.4633 22.7188 15.947 23.3333 17.4941 23.3333C19.0412 23.3333 20.525 22.7188 21.6189 21.6248C22.7129 20.5308 23.3275 19.0471 23.3275 17.5C23.3275 15.9529 22.7129 14.4692 21.6189 13.3752C20.525 12.2812 19.0412 11.6667 17.4941 11.6667Z" fill="#19355C"/>
</svg>
