<svg width="35" height="35" viewBox="0 0 35 35" fill="none" xmlns="http://www.w3.org/2000/svg">
<path d="M29.75 1.75H26.25C25.7859 1.75 25.3408 1.93437 25.0126 2.26256C24.6844 2.59075 24.5 3.03587 24.5 3.5V33.236H31.5V3.5C31.5 3.03587 31.3156 2.59075 30.9874 2.26256C30.6593 1.93437 30.2141 1.75 29.75 1.75ZM19.25 12.25H15.75C15.2859 12.25 14.8408 12.4344 14.5126 12.7626C14.1844 13.0908 14 13.5359 14 14V33.236H21V14C21 13.5359 20.8156 13.0908 20.4874 12.7626C20.1592 12.4344 19.7141 12.25 19.25 12.25ZM8.75 22.75H5.25C4.78587 22.75 4.34075 22.9344 4.01256 23.2626C3.68437 23.5908 3.5 24.0359 3.5 24.5V33.236H10.5V24.5C10.5 24.0359 10.3156 23.5908 9.98744 23.2626C9.65925 22.9344 9.21413 22.75 8.75 22.75Z" fill="#19355C"/>
</svg>
