<svg width="50" height="50" viewBox="0 0 50 50" fill="none" xmlns="http://www.w3.org/2000/svg">
    <path d="M25 16.6667C26.1051 16.6667 27.1649 16.2277 27.9463 15.4463C28.7277 14.6649 29.1667 13.6051 29.1667 12.5C29.1667 11.3949 28.7277 10.3351 27.9463 9.55373C27.1649 8.77233 26.1051 8.33334 25 8.33334C23.895 8.33334 22.8352 8.77233 22.0538 9.55373C21.2724 10.3351 20.8334 11.3949 20.8334 12.5C20.8334 13.6051 21.2724 14.6649 22.0538 15.4463C22.8352 16.2277 23.895 16.6667 25 16.6667ZM10.4167 20.8333C9.86417 20.8333 9.33427 21.0528 8.94357 21.4435C8.55287 21.8342 8.33337 22.3641 8.33337 22.9167C8.33337 23.4692 8.55287 23.9991 8.94357 24.3898C9.33427 24.7805 9.86417 25 10.4167 25H39.5834C40.1359 25 40.6658 24.7805 41.0565 24.3898C41.4472 23.9991 41.6667 23.4692 41.6667 22.9167C41.6667 22.3641 41.4472 21.8342 41.0565 21.4435C40.6658 21.0528 40.1359 20.8333 39.5834 20.8333H10.4167ZM8.33337 31.25C8.33337 30.6975 8.55287 30.1676 8.94357 29.7769C9.33427 29.3862 9.86417 29.1667 10.4167 29.1667H39.5834C40.1359 29.1667 40.6658 29.3862 41.0565 29.7769C41.4472 30.1676 41.6667 30.6975 41.6667 31.25C41.6667 31.8025 41.4472 32.3324 41.0565 32.7232C40.6658 33.1139 40.1359 33.3333 39.5834 33.3333H10.4167C9.86417 33.3333 9.33427 33.1139 8.94357 32.7232C8.55287 32.3324 8.33337 31.8025 8.33337 31.25ZM10.4167 37.5C9.86417 37.5 9.33427 37.7195 8.94357 38.1102C8.55287 38.5009 8.33337 39.0308 8.33337 39.5833C8.33337 40.1359 8.55287 40.6658 8.94357 41.0565C9.33427 41.4472 9.86417 41.6667 10.4167 41.6667H39.5834C40.1359 41.6667 40.6658 41.4472 41.0565 41.0565C41.4472 40.6658 41.6667 40.1359 41.6667 39.5833C41.6667 39.0308 41.4472 38.5009 41.0565 38.1102C40.6658 37.7195 40.1359 37.5 39.5834 37.5H10.4167Z" fill="#19355C"/>
</svg>
