<svg width="42" height="42" viewBox="0 0 42 42" fill="none" xmlns="http://www.w3.org/2000/svg">
<path d="M29.8709 36.504L28.6678 26.256C28.4973 24.8044 27.8343 23.4692 26.8033 22.5012C25.7724 21.5333 24.4446 20.9994 23.0697 21H18.9265C17.5522 21.0004 16.2253 21.5347 15.1952 22.5026C14.1651 23.4704 13.5025 24.8051 13.3321 26.256L12.1272 36.504C12.061 37.067 12.1082 37.6386 12.2657 38.1807C12.4231 38.7228 12.6871 39.2231 13.0402 39.6483C13.3933 40.0736 13.8274 40.414 14.3136 40.6471C14.7999 40.8801 15.3272 41.0004 15.8605 41H26.1394C26.6726 41.0001 27.1997 40.8796 27.6857 40.6464C28.1717 40.4133 28.6056 40.0728 28.9585 39.6476C29.3114 39.2224 29.5752 38.7222 29.7325 38.1802C29.8898 37.6382 29.937 37.0669 29.8709 36.504V36.504Z" stroke="#19355C" stroke-width="2" stroke-linecap="round" stroke-linejoin="round"/>
<path d="M21.0001 13C24.1147 13 26.6396 10.3137 26.6396 7C26.6396 3.68629 24.1147 1 21.0001 1C17.8855 1 15.3606 3.68629 15.3606 7C15.3606 10.3137 17.8855 13 21.0001 13Z" stroke="#19355C" stroke-width="2"/>
<path d="M5.96145 19C8.03785 19 9.72111 17.2091 9.72111 15C9.72111 12.7909 8.03785 11 5.96145 11C3.88504 11 2.20178 12.7909 2.20178 15C2.20178 17.2091 3.88504 19 5.96145 19Z" stroke="#19355C" stroke-width="2"/>
<path d="M36.0387 19C38.1151 19 39.7984 17.2091 39.7984 15C39.7984 12.7909 38.1151 11 36.0387 11C33.9623 11 32.2791 12.7909 32.2791 15C32.2791 17.2091 33.9623 19 36.0387 19Z" stroke="#19355C" stroke-width="2"/>
<path d="M5.96134 25H5.38611C4.49613 24.9999 3.63496 25.3357 2.95582 25.9476C2.27668 26.5596 1.8236 27.408 1.6772 28.342L1.05122 32.342C0.961385 32.9151 0.989975 33.5021 1.135 34.0623C1.28003 34.6224 1.538 35.1422 1.89099 35.5855C2.24398 36.0288 2.6835 36.385 3.17899 36.6293C3.67447 36.8736 4.21403 37.0001 4.76013 37H11.6008M36.0387 25H36.6139C37.5039 24.9999 38.365 25.3357 39.0442 25.9476C39.7233 26.5596 40.1764 27.408 40.3228 28.342L40.9488 32.342C41.0386 32.9151 41.01 33.5021 40.865 34.0623C40.72 34.6224 40.462 35.1422 40.109 35.5855C39.756 36.0288 39.3165 36.385 38.821 36.6293C38.3255 36.8736 37.786 37.0001 37.2399 37H30.3992" stroke="#19355C" stroke-width="2" stroke-linecap="round" stroke-linejoin="round"/>
</svg>
