<svg width="46" height="50" viewBox="0 0 46 50" fill="none" xmlns="http://www.w3.org/2000/svg">
<path d="M27.5003 0.396248C26.8148 0.413334 26.1511 0.634607 25.6447 1.14761C25.5937 1.19908 25.5481 1.25128 25.5029 1.30581L25.4831 1.28598C23.6007 3.67696 21.7168 6.68704 20.6613 10.0498C19.4804 13.8119 19.3113 17.9336 21.2611 22.1555L19.4715 22.9829C17.9628 19.7161 17.5934 16.4527 17.939 13.3884C17.0452 13.9147 16.2081 14.5673 15.4407 15.32C13.0816 12.2403 10.1696 9.35118 7.37233 7.30435C7.22124 7.15256 7.05052 7.02167 6.86471 6.91517C6.50843 6.71245 6.12854 6.61353 5.74421 6.5956C5.70469 6.59349 5.66513 6.59243 5.62555 6.59243C5.58548 6.59243 5.54392 6.59412 5.50374 6.5956C4.94159 6.61701 4.37839 6.79915 3.87551 7.07685C2.95582 7.58479 2.13053 8.42369 1.50247 9.49599C0.874504 10.5684 0.54945 11.6961 0.563161 12.7423C0.577083 13.7888 0.974067 14.858 1.92445 15.3991C1.96326 15.421 2.00386 15.4386 2.0432 15.4581L2.02991 15.4845C4.909 17.2595 8.71284 19.6374 11.1662 22.6169C10.4721 25.0417 10.3397 27.546 10.8894 29.7262C12.5034 36.1288 17.4733 41.9394 22.8105 45.6158C25.4793 47.4538 28.2319 48.7571 30.6384 49.3599C33.0448 49.9624 35.0548 49.8394 36.3238 49.0796C39.1875 47.3657 41.1045 44.2664 42.263 40.5862C41.5403 41.0104 40.7761 41.3594 39.9822 41.6276C36.2089 42.904 31.7446 42.5485 27.9984 40.5663C24.2522 38.5842 21.2374 34.9001 20.5597 29.6799L22.5141 29.4262C23.1124 34.0341 25.6683 37.1014 28.9213 38.8226C32.1744 40.5439 36.1364 40.8455 39.3495 39.7587C42.5626 38.6719 45.01 36.3162 45.5756 32.4912C46.0433 29.3288 45.168 25.0528 42.0062 19.6901C39.9875 19.92 37.9277 20.3617 36.0339 20.9096L35.4867 19.0175C36.8293 18.6292 38.2491 18.2929 39.6923 18.0387C39.9697 18.0619 40.2542 18.0413 40.5395 17.9628C40.6451 17.9336 40.7486 17.8973 40.8493 17.8542C40.8526 17.8536 40.8558 17.8513 40.8592 17.851C40.8587 17.8502 40.8596 17.8484 40.8592 17.8476C41.7263 17.4732 42.2764 16.6377 42.5368 15.7349C42.8279 14.7255 42.8213 13.5491 42.5072 12.3467C42.1929 11.1444 41.6253 10.1171 40.8756 9.38725C40.3135 8.83955 39.5874 8.4375 38.8158 8.39162C38.5754 8.37761 38.3342 8.39987 38.1004 8.45765L38.0906 8.41483C36.3993 9.03076 34.5328 9.86576 32.7117 10.9593C31.7681 12.1593 31.028 13.3305 30.5496 14.4793C29.8064 16.2638 29.6519 17.9724 30.2925 19.9044L28.4236 20.5273C27.6368 18.1542 27.843 15.8515 28.7303 13.7214C29.5134 11.8411 30.8112 10.0728 32.3854 8.30282L32.3689 8.28626C32.4357 8.23268 32.4995 8.1755 32.5601 8.11498C33.3285 7.33694 33.4291 6.20494 33.1764 5.18506C32.9238 4.16517 32.3293 3.15225 31.4559 2.26811L31.4494 2.26473C30.5771 1.38322 29.5744 0.77815 28.5622 0.521123C28.3084 0.45652 28.049 0.416781 27.7876 0.40247C27.7387 0.399939 27.6882 0.39667 27.6393 0.396142C27.5934 0.395404 27.5465 0.394877 27.5008 0.396142L27.5003 0.396248ZM27.5695 2.3605C27.6075 2.3605 27.6491 2.3605 27.6914 2.36366C27.8043 2.37252 27.9319 2.39615 28.077 2.43295C28.6581 2.58061 29.4021 2.99531 30.0514 3.6526C30.7004 4.30967 31.1134 5.06429 31.2609 5.65967C31.4083 6.25525 31.2989 6.58547 31.1554 6.73091C31.0118 6.87646 30.7051 6.98087 30.1239 6.83322C29.5426 6.68556 28.7987 6.26769 28.1496 5.61041C27.5004 4.95334 27.0875 4.19871 26.9398 3.60334C26.7924 3.00776 26.9019 2.68081 27.0453 2.53536C27.1397 2.43992 27.3032 2.36155 27.5695 2.36071V2.3605ZM5.61554 8.55995C5.7305 8.56311 5.82246 8.59138 5.88902 8.62924C6.06673 8.73049 6.24708 8.99881 6.25499 9.5985C6.2629 10.198 6.0527 11.0226 5.5859 11.8197C5.11909 12.617 4.49809 13.214 3.96105 13.5105C3.424 13.8072 3.07743 13.7863 2.89971 13.6853C2.72211 13.5841 2.54186 13.3157 2.53395 12.7161C2.52593 12.1166 2.73603 11.2885 3.20294 10.4914C3.66974 9.69437 4.29074 9.10058 4.82779 8.8039C5.09621 8.65561 5.31748 8.58621 5.4933 8.5666C5.53377 8.56162 5.57455 8.55944 5.61532 8.56006L5.61554 8.55995ZM17.2105 8.69516C15.8394 8.70307 14.4214 9.27387 13.6245 10.1849C14.3468 10.9383 15.0452 11.7084 15.7107 12.4921C16.5382 11.8821 17.4258 11.3605 18.3674 10.9529C18.4877 10.4477 18.6256 9.9495 18.7793 9.45992C18.8249 9.3149 18.8728 9.17199 18.921 9.02813C18.3969 8.7982 17.8086 8.69189 17.2103 8.69527L17.2105 8.69516ZM38.6338 10.3595C38.6625 10.3573 38.6939 10.3573 38.7261 10.3595C38.9187 10.3742 39.1752 10.4875 39.4974 10.8014C39.9268 11.2197 40.3645 11.951 40.5981 12.8447C40.8318 13.7385 40.811 14.5987 40.641 15.1882C40.4712 15.7776 40.2119 16.0107 40.0149 16.0647C39.8177 16.1189 39.5018 16.0547 39.0722 15.6365C38.6428 15.218 38.205 14.4867 37.9714 13.5929C37.7377 12.6992 37.7584 11.839 37.9284 11.2494C38.0984 10.66 38.3577 10.427 38.5547 10.373C38.5794 10.366 38.6051 10.3618 38.6338 10.3597V10.3595Z" fill="#19355C"/>
</svg>
