<svg width="44" height="42" viewBox="0 0 44 42" fill="none" xmlns="http://www.w3.org/2000/svg">
<path d="M12.6666 16.9167C14.8768 16.9167 16.9964 16.0387 18.5592 14.4759C20.122 12.9131 21 10.7935 21 8.58333C21 6.3732 20.122 4.25358 18.5592 2.69078C16.9964 1.12797 14.8768 0.25 12.6666 0.25C10.4565 0.25 8.33687 1.12797 6.77407 2.69078C5.21127 4.25358 4.33329 6.3732 4.33329 8.58333C4.33329 10.7935 5.21127 12.9131 6.77407 14.4759C8.33687 16.0387 10.4565 16.9167 12.6666 16.9167ZM31.4166 16.9167C33.0742 16.9167 34.6639 16.2582 35.836 15.0861C37.0081 13.914 37.6666 12.3243 37.6666 10.6667C37.6666 9.00906 37.0081 7.41935 35.836 6.24725C34.6639 5.07515 33.0742 4.41667 31.4166 4.41667C29.759 4.41667 28.1693 5.07515 26.9972 6.24725C25.8251 7.41935 25.1666 9.00906 25.1666 10.6667C25.1666 12.3243 25.8251 13.914 26.9972 15.0861C28.1693 16.2582 29.759 16.9167 31.4166 16.9167ZM4.85413 21.0833C3.61092 21.0833 2.41864 21.5772 1.53956 22.4563C0.660486 23.3353 0.166626 24.5276 0.166626 25.7708V26.2917C0.166626 26.2917 0.166626 35.6667 12.6666 35.6667C15.5625 35.6667 17.7875 35.1646 19.4958 34.3896C19.1105 33.1148 18.9153 31.7901 18.9166 30.4583C18.9166 27.0062 20.2083 23.8562 22.3333 21.4646C21.7477 21.2123 21.1167 21.0826 20.4791 21.0833H4.85413ZM43.9166 30.4583C43.9166 27.4194 42.7094 24.5049 40.5606 22.3561C38.4117 20.2072 35.4972 19 32.4583 19C29.4194 19 26.5049 20.2072 24.356 22.3561C22.2072 24.5049 21 27.4194 21 30.4583C21 33.4973 22.2072 36.4117 24.356 38.5606C26.5049 40.7095 29.4194 41.9167 32.4583 41.9167C35.4972 41.9167 38.4117 40.7095 40.5606 38.5606C42.7094 36.4117 43.9166 33.4973 43.9166 30.4583ZM33.5 31.5L33.502 36.7146C33.502 36.9909 33.3923 37.2558 33.1969 37.4512C33.0016 37.6465 32.7366 37.7562 32.4604 37.7562C32.1841 37.7562 31.9192 37.6465 31.7238 37.4512C31.5285 37.2558 31.4187 36.9909 31.4187 36.7146V31.5H26.2C25.9237 31.5 25.6587 31.3903 25.4634 31.1949C25.268 30.9996 25.1583 30.7346 25.1583 30.4583C25.1583 30.1821 25.268 29.9171 25.4634 29.7218C25.6587 29.5264 25.9237 29.4167 26.2 29.4167H31.4166V24.2083C31.4166 23.9321 31.5264 23.6671 31.7217 23.4718C31.9171 23.2764 32.182 23.1667 32.4583 23.1667C32.7346 23.1667 32.9995 23.2764 33.1949 23.4718C33.3902 23.6671 33.5 23.9321 33.5 24.2083V29.4167H38.702C38.9783 29.4167 39.2433 29.5264 39.4386 29.7218C39.634 29.9171 39.7437 30.1821 39.7437 30.4583C39.7437 30.7346 39.634 30.9996 39.4386 31.1949C39.2433 31.3903 38.9783 31.5 38.702 31.5H33.5Z" fill="#19355C"/>
</svg>
