<svg width="40" height="40" viewBox="0 0 40 40" fill="none" xmlns="http://www.w3.org/2000/svg">
<mask id="path-1-inside-1_37_236" fill="white">
<path d="M35.81 30.2326H32.6072C32.3886 30.2326 32.1835 30.3302 32.0469 30.5023C31.728 30.8977 31.3863 31.2791 31.0264 31.6419C29.5543 33.1462 27.8107 34.345 25.8919 35.1721C23.904 36.0293 21.7674 36.4691 19.6094 36.4651C17.4271 36.4651 15.3132 36.0279 13.3269 35.1721C11.4081 34.345 9.66446 33.1462 8.19243 31.6419C6.71777 30.1426 5.54192 28.3656 4.72999 26.4093C3.88716 24.3814 3.46346 22.2279 3.46346 20C3.46346 17.7721 3.89171 15.6186 4.72999 13.5907C5.54093 11.6326 6.70723 9.86982 8.19243 8.3582C9.67764 6.84657 11.4043 5.65587 13.3269 4.82797C15.3132 3.97216 17.4271 3.53495 19.6094 3.53495C21.7917 3.53495 23.9056 3.96751 25.8919 4.82797C27.8145 5.65587 29.5412 6.84657 31.0264 8.3582C31.3863 8.72564 31.7234 9.10703 32.0469 9.49773C32.1835 9.66982 32.3931 9.7675 32.6072 9.7675H35.81C36.097 9.7675 36.2747 9.44191 36.1152 9.1954C32.6209 3.65123 26.507 -0.0185342 19.5593 7.04123e-05C8.64346 0.0279773 -0.108327 9.07447 0.00101347 20.2047C0.110354 31.1582 8.84848 40 19.6094 40C26.5389 40 32.6255 36.3349 36.1152 30.8047C36.2701 30.5582 36.097 30.2326 35.81 30.2326ZM39.8602 19.707L33.3954 14.4977C33.1539 14.3024 32.8031 14.4791 32.8031 14.7907V18.3256H18.4978C18.2973 18.3256 18.1333 18.4931 18.1333 18.6977V21.3024C18.1333 21.507 18.2973 21.6745 18.4978 21.6745H32.8031V25.2093C32.8031 25.521 33.1585 25.6977 33.3954 25.5024L39.8602 20.2931C39.9037 20.2583 39.9389 20.2138 39.9632 20.163C39.9874 20.1122 40 20.0565 40 20C40 19.9436 39.9874 19.8878 39.9632 19.8371C39.9389 19.7863 39.9037 19.7418 39.8602 19.707Z"/>
</mask>
<path d="M35.81 30.2326H32.6072C32.3886 30.2326 32.1835 30.3302 32.0469 30.5023C31.728 30.8977 31.3863 31.2791 31.0264 31.6419C29.5543 33.1462 27.8107 34.345 25.8919 35.1721C23.904 36.0293 21.7674 36.4691 19.6094 36.4651C17.4271 36.4651 15.3132 36.0279 13.3269 35.1721C11.4081 34.345 9.66446 33.1462 8.19243 31.6419C6.71777 30.1426 5.54192 28.3656 4.72999 26.4093C3.88716 24.3814 3.46346 22.2279 3.46346 20C3.46346 17.7721 3.89171 15.6186 4.72999 13.5907C5.54093 11.6326 6.70723 9.86982 8.19243 8.3582C9.67764 6.84657 11.4043 5.65587 13.3269 4.82797C15.3132 3.97216 17.4271 3.53495 19.6094 3.53495C21.7917 3.53495 23.9056 3.96751 25.8919 4.82797C27.8145 5.65587 29.5412 6.84657 31.0264 8.3582C31.3863 8.72564 31.7234 9.10703 32.0469 9.49773C32.1835 9.66982 32.3931 9.7675 32.6072 9.7675H35.81C36.097 9.7675 36.2747 9.44191 36.1152 9.1954C32.6209 3.65123 26.507 -0.0185342 19.5593 7.04123e-05C8.64346 0.0279773 -0.108327 9.07447 0.00101347 20.2047C0.110354 31.1582 8.84848 40 19.6094 40C26.5389 40 32.6255 36.3349 36.1152 30.8047C36.2701 30.5582 36.097 30.2326 35.81 30.2326ZM39.8602 19.707L33.3954 14.4977C33.1539 14.3024 32.8031 14.4791 32.8031 14.7907V18.3256H18.4978C18.2973 18.3256 18.1333 18.4931 18.1333 18.6977V21.3024C18.1333 21.507 18.2973 21.6745 18.4978 21.6745H32.8031V25.2093C32.8031 25.521 33.1585 25.6977 33.3954 25.5024L39.8602 20.2931C39.9037 20.2583 39.9389 20.2138 39.9632 20.163C39.9874 20.1122 40 20.0565 40 20C40 19.9436 39.9874 19.8878 39.9632 19.8371C39.9389 19.7863 39.9037 19.7418 39.8602 19.707Z" fill="#19355C"/>
<path d="M32.0469 30.5023L73.2987 63.7783L73.425 63.6217L73.5501 63.4641L32.0469 30.5023ZM31.0264 31.6419L-6.59923 -5.68526L-6.72743 -5.55604L-6.85473 -5.42594L31.0264 31.6419ZM25.8919 35.1721L4.91307 -13.4991L4.90587 -13.496L25.8919 35.1721ZM19.6094 36.4651L19.7059 -16.5348L19.6577 -16.5349H19.6094V36.4651ZM13.3269 35.1721L-7.65197 83.8433L-7.64436 83.8466L13.3269 35.1721ZM8.19243 31.6419L46.0735 -5.42594L46.0256 -5.4749L45.9776 -5.52374L8.19243 31.6419ZM4.72999 26.4093L53.6815 6.09301L53.6764 6.08073L53.6713 6.06846L4.72999 26.4093ZM4.72999 13.5907L-44.2369 -6.68838L-44.2436 -6.67232L-44.2502 -6.65625L4.72999 13.5907ZM13.3269 4.82797L34.289 53.5064L34.2981 53.5025L13.3269 4.82797ZM25.8919 4.82797L4.82467 53.461L4.87721 53.4838L4.92979 53.5064L25.8919 4.82797ZM31.0264 8.3582L68.8889 -28.7286L68.8604 -28.7576L68.8319 -28.7867L31.0264 8.3582ZM32.0469 9.49773L73.5501 -23.464L73.2149 -23.8862L72.8711 -24.3014L32.0469 9.49773ZM36.1152 9.1954L-8.7221 37.4551L-8.55574 37.7191L-8.38629 37.981L36.1152 9.1954ZM19.5593 7.04123e-05L19.6948 52.9999L19.7012 52.9999L19.5593 7.04123e-05ZM0.00101347 20.2047L-52.9964 20.7253L-52.9963 20.7337L0.00101347 20.2047ZM36.1152 30.8047L80.9371 59.089L80.9642 59.0461L80.9912 59.0031L36.1152 30.8047ZM33.3954 14.4977L0.0601931 55.7016L0.100487 55.7342L0.140845 55.7668L33.3954 14.4977ZM32.8031 18.3256V71.3256H85.8031V18.3256H32.8031ZM32.8031 21.6745H85.8031V-31.3255H32.8031V21.6745ZM33.3954 25.5024L0.140845 -15.7667L-0.092081 -15.579L-0.322873 -15.3887L33.3954 25.5024ZM39.8602 20.2931L6.77674 -21.1133L6.69103 -21.0448L6.6056 -20.976L39.8602 20.2931ZM35.81 -22.7674H32.6072V83.2326H35.81V-22.7674ZM32.6072 -22.7674C16.3968 -22.7674 0.842725 -15.4274 -9.4564 -2.45943L73.5501 63.4641C63.5244 76.0879 48.3803 83.2326 32.6072 83.2326V-22.7674ZM-9.20492 -2.77362C-8.37194 -3.80626 -7.5016 -4.77567 -6.59923 -5.68526L68.652 68.969C70.2741 67.3338 71.8279 65.6016 73.2987 63.7783L-9.20492 -2.77362ZM-6.85473 -5.42594C-3.53782 -8.81562 0.448869 -11.5749 4.91307 -13.4991L46.8708 83.8433C55.1726 80.265 62.6465 75.108 68.9075 68.7097L-6.85473 -5.42594ZM4.90587 -13.496C9.55331 -15.5 14.5902 -16.5441 19.7059 -16.5348L19.5129 89.465C28.9445 89.4822 38.2547 87.5586 46.878 83.8402L4.90587 -13.496ZM19.6094 -16.5349C24.6258 -16.5349 29.649 -15.5055 34.2981 -13.5024L-7.64436 83.8466C0.977478 87.5613 10.2285 89.4651 19.6094 89.4651V-16.5349ZM34.3057 -13.4991C38.7699 -11.5749 42.7566 -8.81562 46.0735 -5.42594L-29.6887 68.7097C-23.4277 75.108 -15.9538 80.265 -7.65197 83.8433L34.3057 -13.4991ZM45.9776 -5.52374C49.3067 -2.13912 51.906 1.81508 53.6815 6.09301L-44.2215 46.7256C-40.8222 54.9162 -35.8712 62.4244 -29.5927 68.8075L45.9776 -5.52374ZM53.6713 6.06846C55.5646 10.6239 56.4635 15.3959 56.4635 20H-49.5365C-49.5365 29.06 -47.7903 38.139 -44.2113 46.7502L53.6713 6.06846ZM56.4635 20C56.4635 24.6767 55.5421 29.406 53.7102 33.8377L-44.2502 -6.65625C-47.7587 1.83129 -49.5365 10.8676 -49.5365 20H56.4635ZM53.6969 33.8699C51.9061 38.1939 49.2844 42.1582 45.998 45.503L-29.6131 -28.7867C-35.8699 -22.4186 -40.8243 -14.9287 -44.2369 -6.68838L53.6969 33.8699ZM45.998 45.503C42.7836 48.7746 38.8235 51.5537 34.289 53.5064L-7.63524 -43.8505C-16.0149 -40.242 -23.4283 -35.0815 -29.6131 -28.7867L45.998 45.503ZM34.2981 53.5025C29.649 55.5055 24.6258 56.5349 19.6094 56.5349V-49.4651C10.2285 -49.4651 0.977468 -47.5612 -7.64436 -43.8465L34.2981 53.5025ZM19.6094 56.5349C14.6678 56.5349 9.60053 55.5298 4.82467 53.461L46.9592 -43.8051C38.2106 -47.5948 28.9155 -49.4651 19.6094 -49.4651V56.5349ZM4.92979 53.5064C0.395258 51.5537 -3.56482 48.7746 -6.77919 45.503L68.8319 -28.7867C62.6471 -35.0815 55.2337 -40.242 46.854 -43.8505L4.92979 53.5064ZM-6.8362 45.4449C-7.72199 44.5406 -8.37645 43.7811 -8.77735 43.2969L72.8711 -24.3014C71.8233 -25.567 70.4945 -27.0893 68.8889 -28.7286L-6.8362 45.4449ZM-9.4564 42.4595C0.954729 55.5685 16.584 62.7675 32.6072 62.7675V-43.2325C48.2022 -43.2325 63.4124 -36.2289 73.5501 -23.464L-9.4564 42.4595ZM32.6072 62.7675H35.81V-43.2325H32.6072V62.7675ZM35.81 62.7675C78.799 62.7675 103.204 15.3292 80.6168 -19.5902L-8.38629 37.981C-30.6549 3.55459 -6.60491 -43.2325 35.81 -43.2325V62.7675ZM80.9526 -19.0643C68.3057 -39.1301 45.68 -53.0701 19.4174 -52.9997L19.7012 52.9999C7.33394 53.033 -3.06388 46.4326 -8.7221 37.4551L80.9526 -19.0643ZM19.4238 -52.9998C-21.9272 -52.894 -53.3847 -18.8012 -52.9964 20.7253L52.9985 19.6841C53.1681 36.9502 39.2141 52.95 19.6948 52.9999L19.4238 -52.9998ZM-52.9963 20.7337C-52.607 59.7419 -21.2146 93 19.6094 93V-13C38.9116 -13 52.8277 2.57444 52.9984 19.6757L-52.9963 20.7337ZM19.6094 93C45.8118 93 68.3298 79.0677 80.9371 59.089L-8.7066 2.52036C-3.07885 -6.39788 7.26592 -13 19.6094 -13V93ZM80.9912 59.0031C102.133 25.358 80.0045 -22.7674 35.81 -22.7674V83.2326C-7.81046 83.2326 -29.5923 35.7583 -8.76067 2.60622L80.9912 59.0031ZM73.1147 -21.562L66.65 -26.7713L0.140845 55.7668L6.6056 60.9761L73.1147 -21.562ZM66.7306 -26.7062C29.6922 -56.6714 -20.1969 -27.3194 -20.1969 14.7907H85.8031C85.8031 56.2776 36.6157 85.2761 0.0601931 55.7016L66.7306 -26.7062ZM-20.1969 14.7907V18.3256H85.8031V14.7907H-20.1969ZM32.8031 -34.6744H18.4978V71.3256H32.8031V-34.6744ZM18.4978 -34.6744C-12.0028 -34.6744 -34.8667 -9.73826 -34.8667 18.6977H71.1333C71.1333 46.7244 48.5975 71.3256 18.4978 71.3256V-34.6744ZM-34.8667 18.6977V21.3024H71.1333V18.6977H-34.8667ZM-34.8667 21.3024C-34.8667 49.7383 -12.0028 74.6745 18.4978 74.6745V-31.3255C48.5975 -31.3255 71.1333 -6.72431 71.1333 21.3024H-34.8667ZM18.4978 74.6745H32.8031V-31.3255H18.4978V74.6745ZM-20.1969 21.6745V25.2093H85.8031V21.6745H-20.1969ZM-20.1969 25.2093C-20.1969 67.0642 29.8121 97.1518 67.1137 66.3934L-0.322873 -15.3887C36.5049 -45.7564 85.8031 -16.0223 85.8031 25.2093H-20.1969ZM66.65 66.7714L73.1147 61.5621L6.6056 -20.976L0.140845 -15.7667L66.65 66.7714ZM72.9436 61.6994C79.3013 56.6196 84.3535 50.2023 87.7953 42.9903L-7.86899 -2.66424C-4.47561 -9.77472 0.506093 -16.1031 6.77674 -21.1133L72.9436 61.6994ZM87.7953 42.9903C91.2358 35.7811 93 27.9229 93 20H-13C-13 12.1901 -11.261 4.44338 -7.86899 -2.66424L87.7953 42.9903ZM93 20C93 12.0774 91.2359 4.21914 87.7953 -2.99019L-7.86899 42.6643C-11.2611 35.5565 -13 27.8097 -13 20H93ZM87.7953 -2.99019C84.3533 -10.2027 79.3009 -16.6199 72.9436 -21.6994L6.77674 61.1134C0.50654 56.1035 -4.47536 49.7753 -7.86899 42.6643L87.7953 -2.99019Z" fill="#19355C" mask="url(#path-1-inside-1_37_236)"/>
</svg>
