<svg id="Layer_1" data-name="Layer 1" xmlns="http://www.w3.org/2000/svg" viewBox="0 0 51.07 46.25"><defs><style>.cls-1{fill:none;}.cls-2{fill:#ec0000;}.cls-3{fill:#fff;}</style></defs><path class="cls-1" d="M25.58,8.33a0,0,0,0,1,0,0h0Z"/><path class="cls-2" d="M13.91,19.56c.11-.28.39-.22.71-.23a.87.87,0,0,1,.74.58l4.12,9.25L23,13.58c.08-.33.39-.23.75-.23h0c.36,0,.67-.09.75.25l2.83,10.94,1.71-5a.81.81,0,0,1,.7-.54.73.73,0,0,1,.75.42l4,9,2.25-11.33a.77.77,0,0,1,.75-.61c.34,0,.68.06.77.4l1.83,7.4,6.14,0c4-8,6.19-20.39-5-22.8S25.72,7.77,25.52,8.21C25.31,7.77,21-.73,9.72,1.81c-12.49,2.82-8.16,18.4-3.3,25,.27.37.54.67.81.67l3.53,0ZM25.54,8.33v0h0A0,0,0,0,0,25.54,8.33Z"/><path class="cls-2" d="M38.7,25.69,37.58,20.9l-2.1,10.24a.75.75,0,0,1-.68.58.78.78,0,0,1-.79-.45l-4.15-9.45-1.95,5.47a.74.74,0,0,1-.77.5.77.77,0,0,1-.71-.57l-2.6-10.46-3.43,15a.76.76,0,0,1-.69.58h-.07a.77.77,0,0,1-.71-.44l-4.26-9.63L12,28.62c-.11.29-.4-.27-.73-.27H8.49c8.48,12,16.93,16,17.07,16.09v-.09h0l-.19.88h0c1-.32,10.3-5.59,19.22-17.82.29-.39.72-1,1-1H39.46A.85.85,0,0,1,38.7,25.69Z"/><path class="cls-3" d="M3.5,27.35c-.43,0-.77.09-.77.5s.34.5.77.5h5c-.44,0-.88,0-1.32-1Z"/><path class="cls-3" d="M47.57,24.35H46.21c-.19,0-.39,0-.59,1h2c.43,0,.78-.09.78-.5S48,24.35,47.57,24.35Z"/><path class="cls-3" d="M40.07,24.35l-1.79-7.41a.75.75,0,0,0-.77-.54.84.84,0,0,0-.75.67L34.45,28.41l-4-9a.74.74,0,0,0-.74-.45.76.76,0,0,0-.7.5l-1.75,4.89L24.55,13.59c-.08-.33-.39-.24-.75-.24h0c-.36,0-.67-.08-.75.25L19.41,29.34l-4.08-9.29a.77.77,0,0,0-.73-.51c-.32,0-.6-.31-.71,0l-3.2,7.83H7.17c.44,1,.88,1,1.32,1h2.74c.33,0,.62.56.73.27l2.71-6.74,4.26,9.83a.87.87,0,0,0,.71.54s.05.06.07,0a.74.74,0,0,0,.69-.55l3.43-15,2.6,10.46a.77.77,0,0,0,.71.57.73.73,0,0,0,.77-.5l1.95-5.47L34,31.25a.76.76,0,0,0,.79.44.78.78,0,0,0,.68-.61l2.1-10.29,1.12,4.9a.85.85,0,0,0,.76.66h6.16c.2-2,.4-2,.59-2Z"/></svg>