<svg width="1910" height="1321" viewBox="0 0 1910 1321" fill="none" xmlns="http://www.w3.org/2000/svg">
<mask id="mask0_297_446" style="mask-type:alpha" maskUnits="userSpaceOnUse" x="0" y="0" width="1910" height="1321">
<rect width="1910" height="1321" fill="#1168DA"/>
</mask>
<g mask="url(#mask0_297_446)">
<path d="M921.626 361.296L917.284 323.523C898.445 159.624 996.483 4.78392 1152.69 -48.2806L1201.53 -64.8709C1238.18 -77.3185 1277.77 -78.1328 1314.9 -67.2022C1384.56 -46.69 1436.14 12.1775 1447.32 83.9355L1465.6 201.332C1488.17 346.267 1593.16 464.745 1734.33 504.591L1855.64 538.834C1970.82 571.344 2055.73 669.095 2071.8 787.688C2094.41 954.562 1975.51 1107.44 1808.2 1126.6L1788.54 1128.86C1633.37 1146.63 1489.39 1045.64 1453.25 893.689C1425.51 777.029 1332.69 687.007 1215.24 662.847L1193.54 658.382C1048.24 628.494 938.565 508.668 921.626 361.296Z" stroke="#CCAAEE"/>
</g>
<path d="M622.631 1207L682.811 1122.57C697.33 1102.2 707.195 1078.88 711.708 1054.28V1054.28C727.707 967.053 674.258 882.102 588.702 858.772L546.74 847.33C506.246 836.288 463.425 837.166 423.418 849.86L345.462 874.595C211.509 917.097 79.1184 805.141 98.7808 665.989V665.989V614.841C98.7808 552.533 56.4245 498.201 -4 483V483" stroke="#01CFC9"/>
</svg>
