<svg width="1915" height="1321" viewBox="0 0 1915 1321" fill="none" xmlns="http://www.w3.org/2000/svg">
<mask id="mask0_297_446" style="mask-type:alpha" maskUnits="userSpaceOnUse" x="5" y="0" width="1910" height="1321">
<rect x="5" width="1910" height="1321" fill="#1168DA"/>
</mask>
<g mask="url(#mask0_297_446)">
<path d="M926.626 361.296L922.284 323.523C903.445 159.624 1001.48 4.78392 1157.69 -48.2806L1206.53 -64.8709C1243.18 -77.3185 1282.77 -78.1328 1319.9 -67.2022C1389.56 -46.69 1441.14 12.1775 1452.32 83.9355L1470.6 201.332C1493.17 346.267 1598.16 464.745 1739.33 504.591L1860.64 538.834C1975.82 571.344 2060.73 669.095 2076.8 787.688C2099.41 954.562 1980.51 1107.44 1813.2 1126.6L1793.54 1128.86C1638.37 1146.63 1494.39 1045.64 1458.25 893.689C1430.51 777.029 1337.69 687.007 1220.24 662.847L1198.54 658.382C1053.24 628.494 943.565 508.668 926.626 361.296Z" stroke="#CCAAEE"/>
</g>
<path d="M627.631 1207L687.811 1122.57C702.33 1102.2 712.195 1078.88 716.708 1054.28V1054.28C732.707 967.053 679.258 882.102 593.702 858.772L551.74 847.33C511.246 836.288 468.425 837.166 428.418 849.86L350.462 874.595C216.509 917.097 84.1184 805.141 103.781 665.989V665.989V614.841C103.781 552.533 61.4245 498.201 1 483V483" stroke="#01CFC9"/>
</svg>
