<svg width="126" height="25" viewBox="0 0 126 25" fill="none" xmlns="http://www.w3.org/2000/svg">
<path d="M0.84 14.06C0.84 12.1 1.232 10.3547 2.016 8.824C2.81867 7.29333 3.95733 6.108 5.432 5.268C6.90667 4.40933 8.64267 3.98 10.64 3.98C12.3573 3.98 13.888 4.30667 15.232 4.96C16.5947 5.59467 17.696 6.5 18.536 7.676C19.3947 8.852 19.964 10.224 20.244 11.792H13.692C13.3933 11.1387 12.964 10.6347 12.404 10.28C11.8627 9.90667 11.2373 9.72 10.528 9.72C9.48267 9.72 8.652 10.112 8.036 10.896C7.43867 11.68 7.14 12.7347 7.14 14.06C7.14 15.3853 7.43867 16.44 8.036 17.224C8.652 18.008 9.48267 18.4 10.528 18.4C11.2373 18.4 11.8627 18.2227 12.404 17.868C12.964 17.4947 13.3933 16.9813 13.692 16.328H20.244C19.964 17.896 19.3947 19.268 18.536 20.444C17.696 21.62 16.5947 22.5347 15.232 23.188C13.888 23.8227 12.3573 24.14 10.64 24.14C8.64267 24.14 6.90667 23.72 5.432 22.88C3.95733 22.0213 2.81867 20.8267 2.016 19.296C1.232 17.7653 0.84 16.02 0.84 14.06ZM21.642 16.104C21.642 14.4427 21.922 13.0053 22.482 11.792C23.0607 10.56 23.8447 9.62667 24.834 8.992C25.8234 8.33867 26.934 8.012 28.166 8.012C29.1927 8.012 30.0794 8.22667 30.826 8.656C31.5727 9.06667 32.142 9.636 32.534 10.364V8.208H38.722V24H32.534V21.844C32.142 22.572 31.5727 23.1507 30.826 23.58C30.0794 23.9907 29.1927 24.196 28.166 24.196C26.934 24.196 25.8234 23.8787 24.834 23.244C23.8447 22.5907 23.0607 21.6573 22.482 20.444C21.922 19.212 21.642 17.7653 21.642 16.104ZM32.534 16.104C32.534 15.264 32.3194 14.6107 31.89 14.144C31.4607 13.6773 30.91 13.444 30.238 13.444C29.566 13.444 29.0154 13.6773 28.586 14.144C28.1567 14.6107 27.942 15.264 27.942 16.104C27.942 16.944 28.1567 17.5973 28.586 18.064C29.0154 18.5307 29.566 18.764 30.238 18.764C30.91 18.764 31.4607 18.5307 31.89 18.064C32.3194 17.5973 32.534 16.944 32.534 16.104ZM47.7293 11.12C48.3639 10.2053 49.1386 9.47733 50.0533 8.936C50.9679 8.376 51.9199 8.096 52.9093 8.096V14.732H51.1453C49.9693 14.732 49.1013 14.9373 48.5413 15.348C47.9999 15.7587 47.7293 16.4867 47.7293 17.532V24H41.5133V8.208H47.7293V11.12ZM69.8716 15.964C69.8716 16.3933 69.8436 16.804 69.7876 17.196H59.7916C59.8849 18.5587 60.4543 19.24 61.4996 19.24C62.1716 19.24 62.6569 18.932 62.9556 18.316H69.5356C69.3116 19.436 68.8356 20.444 68.1076 21.34C67.3983 22.2173 66.4929 22.9173 65.3916 23.44C64.3089 23.944 63.1143 24.196 61.8076 24.196C60.2396 24.196 58.8396 23.8693 57.6076 23.216C56.3943 22.5627 55.4423 21.6293 54.7516 20.416C54.0796 19.184 53.7436 17.7467 53.7436 16.104C53.7436 14.4613 54.0796 13.0333 54.7516 11.82C55.4423 10.588 56.3943 9.64533 57.6076 8.992C58.8396 8.33867 60.2396 8.012 61.8076 8.012C63.3756 8.012 64.7663 8.33867 65.9796 8.992C67.2116 9.62667 68.1636 10.5413 68.8356 11.736C69.5263 12.9307 69.8716 14.34 69.8716 15.964ZM63.5716 14.48C63.5716 13.9573 63.4036 13.5653 63.0676 13.304C62.7316 13.024 62.3116 12.884 61.8076 12.884C60.7063 12.884 60.0623 13.416 59.8756 14.48H63.5716ZM82.8113 19.296H88.8033V24H76.5953V4.176H82.8113V19.296ZM93.8954 6.948C92.8127 6.948 91.9447 6.65867 91.2914 6.08C90.638 5.50133 90.3114 4.77333 90.3114 3.896C90.3114 3 90.638 2.26267 91.2914 1.684C91.9447 1.08667 92.8127 0.787998 93.8954 0.787998C94.9594 0.787998 95.818 1.08667 96.4714 1.684C97.1247 2.26267 97.4514 3 97.4514 3.896C97.4514 4.77333 97.1247 5.50133 96.4714 6.08C95.818 6.65867 94.9594 6.948 93.8954 6.948ZM96.9754 8.208V24H90.7594V8.208H96.9754ZM108.883 7.088C108.547 7.05067 108.313 7.032 108.183 7.032C107.716 7.032 107.361 7.12533 107.119 7.312C106.876 7.48 106.708 7.77867 106.615 8.208H108.883V13.388H106.559V24H100.343V13.388H98.6628V8.208H100.343C100.38 6.15467 101.024 4.568 102.275 3.448C103.544 2.30933 105.317 1.74 107.595 1.74C107.856 1.74 108.285 1.75867 108.883 1.796V7.088ZM125.844 15.964C125.844 16.3933 125.816 16.804 125.76 17.196H115.764C115.858 18.5587 116.427 19.24 117.472 19.24C118.144 19.24 118.63 18.932 118.928 18.316H125.508C125.284 19.436 124.808 20.444 124.08 21.34C123.371 22.2173 122.466 22.9173 121.364 23.44C120.282 23.944 119.087 24.196 117.78 24.196C116.212 24.196 114.812 23.8693 113.58 23.216C112.367 22.5627 111.415 21.6293 110.724 20.416C110.052 19.184 109.716 17.7467 109.716 16.104C109.716 14.4613 110.052 13.0333 110.724 11.82C111.415 10.588 112.367 9.64533 113.58 8.992C114.812 8.33867 116.212 8.012 117.78 8.012C119.348 8.012 120.739 8.33867 121.952 8.992C123.184 9.62667 124.136 10.5413 124.808 11.736C125.499 12.9307 125.844 14.34 125.844 15.964ZM119.544 14.48C119.544 13.9573 119.376 13.5653 119.04 13.304C118.704 13.024 118.284 12.884 117.78 12.884C116.679 12.884 116.035 13.416 115.848 14.48H119.544Z" fill="white"/>
</svg>
