<svg width="30" height="20" viewBox="0 0 30 20" fill="none" xmlns="http://www.w3.org/2000/svg">
<path d="M30 17.5001C30 18.3841 29.6488 19.232 29.0237 19.8571C28.3986 20.4822 27.5507 20.8334 26.6667 20.8334H3.33333C2.44928 20.8334 1.60143 20.4822 0.976311 19.8571C0.35119 19.232 0 18.3841 0 17.5001V2.50008C0 1.61603 0.35119 0.76818 0.976311 0.143059C1.60143 -0.482063 2.44928 -0.833252 3.33333 -0.833252H26.6667C27.5507 -0.833252 28.3986 -0.482063 29.0237 0.143059C29.6488 0.76818 30 1.61603 30 2.50008V17.5001Z" fill="#009B3A"/>
<path d="M27.2732 10.0001L14.9999 19.2701L2.72656 10.0001L14.9999 0.729248L27.2732 10.0001Z" fill="#FEDF01"/>
<path d="M14.9798 15.3183C17.952 15.3183 20.3615 12.9088 20.3615 9.9366C20.3615 6.96439 17.952 4.55493 14.9798 4.55493C12.0076 4.55493 9.59814 6.96439 9.59814 9.9366C9.59814 12.9088 12.0076 15.3183 14.9798 15.3183Z" fill="#002776"/>
<path d="M10.2309 7.40585C9.95139 7.93257 9.7621 8.50241 9.6709 9.09168C13.0001 8.85002 17.5184 10.6675 19.4576 12.9208C19.7926 12.4175 20.0409 11.8542 20.1934 11.2508C17.8001 8.91085 13.5959 7.39252 10.2309 7.40585Z" fill="#CBE9D4"/>
<path d="M10 10.1941H10.8333V11.0274H10V10.1941ZM10.8333 11.8608H11.6667V12.6941H10.8333V11.8608Z" fill="#88C9F9"/>
<path d="M12.5 10.1943H13.3333V11.0276H12.5V10.1943ZM14.1667 11.0276H15V11.8609H14.1667V11.0276ZM17.5 12.6943H18.3333V13.5276H17.5V12.6943ZM15 13.5276H15.8333V14.3609H15V13.5276ZM17.5 8.52759H18.3333V9.36092H17.5V8.52759Z" fill="#55ACEE"/>
<path d="M15.8335 11.8608H16.6668V12.6942H15.8335V11.8608Z" fill="#3B88C3"/>
</svg>
