<svg width="15" height="9" viewBox="0 0 15 9" fill="none" xmlns="http://www.w3.org/2000/svg">
<path d="M7.00028 7.99979C6.76662 8.00024 6.54019 7.91887 6.36028 7.76979L0.360276 2.76979C0.156059 2.60005 0.0276347 2.35614 0.00325494 2.09171C-0.0211248 1.82728 0.0605371 1.564 0.230276 1.35979C0.400014 1.15557 0.643926 1.02715 0.908352 1.00277C1.17278 0.978387 1.43606 1.06005 1.64028 1.22979L7.00028 5.70979L12.3603 1.38979C12.4626 1.30672 12.5803 1.24469 12.7066 1.20726C12.8329 1.16983 12.9654 1.15773 13.0965 1.17167C13.2275 1.18561 13.3545 1.22531 13.4701 1.28848C13.5857 1.35166 13.6878 1.43706 13.7703 1.53979C13.8619 1.64261 13.9312 1.76324 13.974 1.89411C14.0168 2.02498 14.0321 2.16328 14.019 2.30035C14.0058 2.43741 13.9645 2.57028 13.8976 2.69064C13.8307 2.811 13.7397 2.91624 13.6303 2.99979L7.63028 7.82979C7.44519 7.9553 7.22338 8.01516 7.00028 7.99979Z" fill="#3377FF"/>
</svg>
