<svg width="1440" height="901" viewBox="0 0 1440 901" fill="none" xmlns="http://www.w3.org/2000/svg">
<path d="M694.613 262.85L691.316 234.152C677.126 110.639 751 -6.048 868.714 -46.0539L905.545 -58.5713C933.171 -67.9601 963.024 -68.5743 991.013 -60.3296C1043.51 -44.8656 1082.37 -0.501427 1090.79 53.5736L1104.58 142.145C1121.59 251.43 1200.74 340.772 1307.18 370.83L1398.47 396.61C1485.32 421.135 1549.34 494.849 1561.45 584.274C1578.49 710.102 1488.84 825.377 1362.68 839.83L1348.07 841.505C1231.07 854.91 1122.5 778.761 1095.27 664.184C1074.36 576.228 1004.39 508.35 915.841 490.127L899.528 486.77C790.023 464.234 707.374 373.919 694.613 262.85Z" stroke="#CCAAEE"/>
<path d="M469.5 900L514.877 836.326C525.825 820.963 533.264 803.382 536.667 784.827V784.827C548.73 719.045 508.423 654.979 443.9 637.382L412.283 628.759C381.744 620.43 349.451 621.093 319.28 630.667L260.534 649.31C159.517 681.366 59.6741 596.939 74.5 492V492V453.416C74.5 406.433 42.5623 365.464 -3 354V354" stroke="#01CFC9"/>
</svg>
