<svg width="751" height="844" viewBox="0 0 751 844" fill="none" xmlns="http://www.w3.org/2000/svg">
<path d="M5.61347 262.85L2.31643 234.152C-11.8739 110.639 61.9999 -6.048 179.714 -46.0539L216.545 -58.5713C244.171 -67.9601 274.024 -68.5743 302.013 -60.3296C354.509 -44.8656 393.371 -0.501427 401.789 53.5736L415.578 142.145C432.592 251.43 511.745 340.772 618.184 370.83L709.475 396.61C796.32 421.135 860.336 494.849 872.449 584.274C889.494 710.102 799.836 825.377 673.684 839.83L659.069 841.505C542.066 854.91 433.503 778.761 406.27 664.184C385.364 576.228 315.392 508.35 226.841 490.127L210.528 486.77C101.023 464.234 18.3741 373.919 5.61347 262.85Z" stroke="#CCAAEE"/>
</svg>
